<?xml version="1.0"?>
<svg version="1.1" xmlns="http://www.w3.org/2000/svg" width="200px" height="100px" style=""><path fill="#111112" d="M23.528,66.8l-0.504-1.82s-2.156,2.1-4.536,2.1c-2.716,0-4.368-1.596-4.368-4.396c0-3.304,2.492-4.62,6.748-4.62l1.96,0l0-1.54c0-1.428-0.756-2.044-2.156-2.044c-1.428,0-2.464,0.42-2.464,0.42l-0.42,1.764l-2.52,0l-0.196-4.144s3.388-1.12,6.076-1.12c4.256,0,5.88,1.484,5.88,5.544l0,6.916l2.1,0.504l0,2.24z M22.828,60.444l-1.596,0c-2.184,0-3.052,0.56-3.052,1.82c0,1.064,0.588,1.68,1.652,1.68c1.484,0,2.996-1.624,2.996-1.624l0-1.876z M34.49028,47.06c0-1.512,1.064-2.52,2.408-2.52c1.512,0,2.352,0.812,2.352,2.52c0,1.54-1.092,2.548-2.352,2.548c-1.512,0-2.408-0.896-2.408-2.548z M39.19428,51.68l0,14.756c0,4.844-1.428,7.224-6.16,7.224c-0.896,0-2.128-0.196-2.128-0.196l0.336-2.744l1.456,0c1.68,0,2.296-0.98,2.296-2.772l0-13.188l-2.24-0.7l0-2.24z M53.68456,66.8l-0.504-1.82s-2.156,2.1-4.536,2.1c-2.716,0-4.368-1.596-4.368-4.396c0-3.304,2.492-4.62,6.748-4.62l1.96,0l0-1.54c0-1.428-0.756-2.044-2.156-2.044c-1.428,0-2.464,0.42-2.464,0.42l-0.42,1.764l-2.52,0l-0.196-4.144s3.388-1.12,6.076-1.12c4.256,0,5.88,1.484,5.88,5.544l0,6.916l2.1,0.504l0,2.24z M52.98456,60.444l-1.596,0c-2.184,0-3.052,0.56-3.052,1.82c0,1.064,0.588,1.68,1.652,1.68c1.484,0,2.996-1.624,2.996-1.624l0-1.876z M62.07084,54.06l0-2.24l7.476-0.14l0,2.38l-1.568,0.28l2.492,7.84l2.38-7.756l-1.624-0.364l0-2.24l7.532-0.14l0,2.38l-1.736,0.364l-4.116,11.48c-1.344,3.696-3.164,7.616-7.616,7.616c-0.952,0-2.716-0.224-2.716-0.224l0.392-2.996l1.82,0c2.24,0,3.276-2.38,3.752-3.472l-4.984-12.32z"/><path fill="#102aeb" d="M91.944,69.04l0,2.8l-14,0l0-2.8l14,0z M94.39428,51.82l5.964-0.14l0.252,1.568s1.904-1.848,4.144-1.848c3.892,0,5.824,2.884,5.824,7.42c0,5.18-2.464,8.26-7.364,8.26c-0.812,0-1.652-0.112-2.38-0.28l0,3.556l2.66,0.644l0,2.24l-9.044,0l0-2.24l2.184-0.644l0-15.596l-2.24-0.7l0-2.24z M100.83428,56.3l0,7.14c0.448,0.196,1.12,0.42,2.184,0.42c2.408,0,3.22-1.68,3.22-4.536c0-2.828-0.756-4.564-2.8-4.564c-1.82,0-2.604,1.54-2.604,1.54z M120.50456,51.68l0.252,1.932s2.016-2.212,3.892-2.212c1.54,0,2.604,0.504,2.604,0.504l-0.224,5.376l-2.52,0l-0.42-2.38c-1.624,0-3.024,1.568-3.024,1.568l0,7.392l2.8,0.7l0,2.24l-9.24,0l0-2.24l2.24-0.7l0-9.1l-2.24-0.7l0-2.24z M135.77884,64.28l4.144,0c3.556,0,5.6,1.54,5.6,4.34c0,3.08-2.464,5.32-7.84,5.32c-4.396,0-7.224-0.98-7.224-4.06c0-2.408,2.94-3.36,2.94-3.36s-1.68-0.252-1.68-1.848c0-0.812,1.12-2.632,1.456-3.164c-0.672-0.448-2.156-1.652-2.156-4.368c0-3.836,2.884-5.74,6.72-5.74c1.624,0,2.772,0.42,3.304,0.672l4.816-0.112l0,2.24l-2.296,0.392c0.056,0.252,0.476,1.008,0.476,2.212c0,4.06-2.856,5.74-6.72,5.74c-0.756,0-1.316-0.14-1.428-0.14z M137.59884,54.284c-1.68,0-2.38,0.896-2.38,2.66c0,1.68,0.644,2.8,2.24,2.8c1.764,0,2.38-0.924,2.38-2.8c0-1.764-0.7-2.66-2.24-2.66z M138.80284,67.36l-2.94,0s-1.344,0.616-1.344,1.82c0,1.4,1.204,1.68,3.5,1.68c2.52,0,3.584-0.56,3.584-1.904c0-1.26-0.924-1.596-2.8-1.596z M175.46912,64.56l0,2.24l-7.588,0l0-2.24l1.484-0.7l0-6.664c0-1.54-0.448-2.296-1.624-2.296c-1.82,0-3.108,1.456-3.108,1.456l0,7.504l1.456,0.7l0,2.24l-7.112,0l0-2.24l1.456-0.7l0-6.664c0-1.54-0.392-2.296-1.596-2.296c-1.82,0-3.136,1.456-3.136,1.456l0,7.504l1.484,0.7l0,2.24l-7.84,0l0-2.24l2.156-0.7l0-9.1l-2.128-0.7l0-2.24l5.852-0.14l0.196,1.988s2.436-2.268,4.9-2.268c1.988,0,3.22,0.924,3.864,2.408c0.476-0.476,2.576-2.408,5.068-2.408c2.94,0,4.312,1.904,4.312,5.04l0,7.42z M184.9754,51.68l0.252,1.932s2.016-2.212,3.892-2.212c1.54,0,2.604,0.504,2.604,0.504l-0.224,5.376l-2.52,0l-0.42-2.38c-1.624,0-3.024,1.568-3.024,1.568l0,7.392l2.8,0.7l0,2.24l-9.24,0l0-2.24l2.24-0.7l0-9.1l-2.24-0.7l0-2.24z"/></svg>
